<svg width="1440" height="785" viewBox="0 0 1440 785" fill="none" xmlns="http://www.w3.org/2000/svg">
<g clip-path="url(#clip0_8_104)">
<rect width="1440" height="785" fill="#F4F4F4"/>
<g clip-path="url(#clip1_8_104)">
<path d="M1395.38 216.197C1420.89 216.197 1441.58 195.514 1441.58 170C1441.58 144.486 1420.89 123.803 1395.38 123.803C1369.87 123.803 1349.18 144.486 1349.18 170C1349.18 195.514 1369.87 216.197 1395.38 216.197Z" fill="#E4E4E4"/>
<path d="M1400.78 189.392C1397.79 189.309 1394.06 189.205 1391.19 187.108C1390.33 186.458 1389.63 185.629 1389.13 184.678C1388.63 183.728 1388.34 182.68 1388.29 181.607C1388.24 180.845 1388.36 180.081 1388.66 179.375C1388.95 178.669 1389.4 178.04 1389.98 177.537C1390.83 176.899 1391.83 176.484 1392.89 176.332C1393.95 176.18 1395.02 176.295 1396.03 176.666L1393.58 158.798L1395.37 158.552L1398.25 179.558L1396.75 178.871C1395.01 178.074 1392.63 177.668 1391.15 178.921C1390.78 179.248 1390.5 179.655 1390.32 180.11C1390.14 180.565 1390.06 181.055 1390.1 181.543C1390.15 182.342 1390.36 183.121 1390.73 183.829C1391.1 184.537 1391.63 185.156 1392.26 185.645C1394.49 187.277 1397.46 187.487 1400.83 187.582L1400.78 189.392Z" fill="#301446"/>
<path d="M1384.7 160.339H1374.95V162.151H1384.7V160.339Z" fill="#301446"/>
<path d="M1415.5 160.339H1405.74V162.151H1415.5V160.339Z" fill="#301446"/>
<path d="M1395.38 243C1380.94 243 1366.83 238.719 1354.82 230.697C1342.82 222.676 1333.46 211.275 1327.94 197.936C1322.41 184.597 1320.97 169.919 1323.78 155.758C1326.6 141.598 1333.55 128.59 1343.76 118.381C1353.97 108.172 1366.98 101.219 1381.14 98.4027C1395.3 95.586 1409.98 97.0316 1423.32 102.557C1436.66 108.082 1448.06 117.439 1456.08 129.443C1464.1 141.448 1468.38 155.562 1468.38 170C1468.36 189.354 1460.66 207.909 1446.98 221.595C1433.29 235.28 1414.74 242.978 1395.38 243V243ZM1395.38 99C1381.34 99 1367.61 103.164 1355.94 110.966C1344.26 118.767 1335.16 129.856 1329.79 142.83C1324.41 155.803 1323.01 170.079 1325.75 183.851C1328.48 197.624 1335.25 210.275 1345.18 220.205C1355.11 230.134 1367.76 236.896 1381.53 239.636C1395.3 242.375 1409.58 240.969 1422.55 235.595C1435.53 230.222 1446.61 221.121 1454.42 209.446C1462.22 197.77 1466.38 184.042 1466.38 170C1466.36 151.176 1458.87 133.129 1445.56 119.819C1432.25 106.508 1414.21 99.0213 1395.38 99V99Z" fill="#3F3D56"/>
<path d="M1331.4 385.552C1351.73 385.552 1368.21 369.068 1368.21 348.733C1368.21 328.399 1351.73 311.915 1331.4 311.915C1311.06 311.915 1294.58 328.399 1294.58 348.733C1294.58 369.068 1311.06 385.552 1331.4 385.552Z" fill="#E4E4E4"/>
<path d="M1457.76 385.552C1478.09 385.552 1494.58 369.068 1494.58 348.733C1494.58 328.399 1478.09 311.915 1457.76 311.915C1437.43 311.915 1420.94 328.399 1420.94 348.733C1420.94 369.068 1437.43 385.552 1457.76 385.552Z" fill="#CACACA"/>
<path d="M1349.28 356.086C1348.05 356.136 1346.85 355.699 1345.94 354.87C1345.04 354.042 1344.49 352.888 1344.43 351.66C1344.42 351.567 1344.41 351.474 1344.41 351.381H1318.38C1318.38 351.474 1318.37 351.567 1318.36 351.66C1318.33 352.287 1318.18 352.901 1317.9 353.466C1317.63 354.03 1317.24 354.534 1316.77 354.947C1316.3 355.359 1315.74 355.673 1315.15 355.868C1314.55 356.063 1313.92 356.135 1313.29 356.082C1312.64 356.077 1312 355.943 1311.4 355.688C1310.8 355.434 1310.26 355.063 1309.8 354.597C1309.35 354.132 1308.99 353.581 1308.75 352.976C1308.51 352.372 1308.39 351.725 1308.4 351.074V350.881C1308.4 348.362 1309.4 345.947 1311.18 344.167C1312.96 342.386 1315.38 341.384 1317.9 341.381H1344.9C1347.41 341.384 1349.83 342.386 1351.61 344.167C1353.39 345.947 1354.39 348.362 1354.4 350.881V351.074C1354.41 351.725 1354.29 352.372 1354.04 352.976C1353.8 353.581 1353.44 354.132 1352.99 354.597C1352.53 355.063 1351.99 355.434 1351.39 355.688C1350.79 355.943 1350.15 356.077 1349.5 356.082C1349.43 356.084 1349.35 356.086 1349.28 356.086Z" fill="white"/>
</g>
</g>
<defs>
<clipPath id="clip0_8_104">
<rect width="1440" height="785" fill="white"/>
</clipPath>
<clipPath id="clip1_8_104">
<rect width="738.578" height="506.294" fill="white" transform="translate(756 97)"/>
</clipPath>
</defs>
</svg>
